<?xml version="1.0" standalone="no"?>
<!DOCTYPE svg PUBLIC "-//W3C//DTD SVG 20010904//EN"
 "http://www.w3.org/TR/2001/REC-SVG-20010904/DTD/svg10.dtd">
<svg version="1.0" xmlns="http://www.w3.org/2000/svg"
 width="228.000000pt" height="228.000000pt" viewBox="0 0 228.000000 228.000000"
 preserveAspectRatio="xMidYMid meet">
<metadata>
Created by potrace 1.11, written by Peter Selinger 2001-2013
</metadata>
<g transform="translate(0.000000,228.000000) scale(0.100000,-0.100000)"
fill="#000000" stroke="none">
<path d="M48 2263 c-15 -10 -32 -29 -38 -43 -7 -17 -9 -366 -8 -1098 l3 -1074
28 -24 28 -24 1080 0 1081 0 29 29 29 29 0 1071 c0 748 -3 1077 -11 1094 -6
13 -23 31 -39 40 -26 16 -117 17 -1092 17 -979 -1 -1065 -2 -1090 -17z"/>
</g>
</svg>
